<mxfile host="app.diagrams.net" modified="2023-12-05T12:59:12.953Z" agent="Mozilla/5.0 (Windows NT 10.0; Win64; x64) AppleWebKit/537.36 (KHTML, like Gecko) Chrome/119.0.0.0 Safari/537.36" etag="ZpVU57iZfVjy8ONOQiR3" version="22.1.5" type="github">
  <diagram name="第 1 页" id="DbckvpBFuPU66umTCdst">
    <mxGraphModel dx="982" dy="528" grid="1" gridSize="10" guides="1" tooltips="1" connect="1" arrows="1" fold="1" page="1" pageScale="1" pageWidth="827" pageHeight="1169" math="0" shadow="0">
      <root>
        <mxCell id="0" />
        <mxCell id="1" parent="0" />
        <mxCell id="Ax9IiTMzF-sSAHh43Iia-16" value="" style="edgeStyle=orthogonalEdgeStyle;rounded=0;orthogonalLoop=1;jettySize=auto;html=1;fillColor=#f8cecc;strokeColor=#b85450;" edge="1" parent="1" source="Ax9IiTMzF-sSAHh43Iia-17" target="Ax9IiTMzF-sSAHh43Iia-19">
          <mxGeometry relative="1" as="geometry" />
        </mxCell>
        <mxCell id="Ax9IiTMzF-sSAHh43Iia-17" value="&lt;span style=&quot;color: rgb(0, 0, 0); font-family: &amp;quot;Times New Roman&amp;quot;; font-size: 16px; font-style: normal; font-variant-ligatures: normal; font-variant-caps: normal; font-weight: 400; letter-spacing: normal; orphans: 2; text-align: center; text-indent: 0px; text-transform: none; widows: 2; word-spacing: 0px; -webkit-text-stroke-width: 0px; text-decoration-thickness: initial; text-decoration-style: initial; text-decoration-color: initial; float: none; display: inline !important;&quot;&gt;CPS 程序&lt;/span&gt;" style="rounded=0;whiteSpace=wrap;html=1;shadow=1;fillColor=#f8cecc;strokeColor=#b85450;labelBackgroundColor=none;" vertex="1" parent="1">
          <mxGeometry x="380" y="70" width="90" height="40" as="geometry" />
        </mxCell>
        <mxCell id="Ax9IiTMzF-sSAHh43Iia-18" value="" style="edgeStyle=orthogonalEdgeStyle;rounded=0;orthogonalLoop=1;jettySize=auto;html=1;" edge="1" parent="1" source="Ax9IiTMzF-sSAHh43Iia-19" target="Ax9IiTMzF-sSAHh43Iia-26">
          <mxGeometry relative="1" as="geometry" />
        </mxCell>
        <mxCell id="Ax9IiTMzF-sSAHh43Iia-19" value="&lt;font face=&quot;Times New Roman&quot;&gt;&lt;span style=&quot;font-size: 16px;&quot;&gt;SSA 程序&lt;/span&gt;&lt;/font&gt;" style="rounded=0;whiteSpace=wrap;html=1;shadow=1;fillColor=#f8cecc;strokeColor=#b85450;labelBackgroundColor=none;" vertex="1" parent="1">
          <mxGeometry x="618.75" y="70" width="91.25" height="40" as="geometry" />
        </mxCell>
        <mxCell id="Ax9IiTMzF-sSAHh43Iia-20" value="&lt;font style=&quot;font-size: 16px;&quot; face=&quot;Times New Roman&quot; color=&quot;#990000&quot;&gt;CPS → SSA 转换&lt;/font&gt;" style="text;html=1;strokeColor=none;fillColor=none;align=center;verticalAlign=middle;whiteSpace=wrap;rounded=0;" vertex="1" parent="1">
          <mxGeometry x="480" y="60" width="126.25" height="30" as="geometry" />
        </mxCell>
        <mxCell id="Ax9IiTMzF-sSAHh43Iia-21" value="" style="edgeStyle=orthogonalEdgeStyle;rounded=0;orthogonalLoop=1;jettySize=auto;html=1;fillColor=#f8cecc;strokeColor=#b85450;" edge="1" parent="1" source="Ax9IiTMzF-sSAHh43Iia-22" target="Ax9IiTMzF-sSAHh43Iia-17">
          <mxGeometry relative="1" as="geometry" />
        </mxCell>
        <mxCell id="Ax9IiTMzF-sSAHh43Iia-22" value="直接风格PCF 程序" style="rounded=0;whiteSpace=wrap;html=1;labelBackgroundColor=none;fontFamily=Times New Roman;fontSize=16;shadow=1;fillColor=#f8cecc;strokeColor=#b85450;" vertex="1" parent="1">
          <mxGeometry x="120" y="70" width="150" height="40" as="geometry" />
        </mxCell>
        <mxCell id="Ax9IiTMzF-sSAHh43Iia-23" value="" style="edgeStyle=orthogonalEdgeStyle;rounded=0;orthogonalLoop=1;jettySize=auto;html=1;" edge="1" parent="1" source="Ax9IiTMzF-sSAHh43Iia-24" target="Ax9IiTMzF-sSAHh43Iia-22">
          <mxGeometry relative="1" as="geometry" />
        </mxCell>
        <mxCell id="Ax9IiTMzF-sSAHh43Iia-24" value="PCF 程序文本" style="rounded=0;whiteSpace=wrap;html=1;labelBackgroundColor=none;fontFamily=Times New Roman;fontSize=16;shadow=1;fillColor=#f9f7ed;strokeColor=#36393d;" vertex="1" parent="1">
          <mxGeometry x="125" y="150" width="140" height="40" as="geometry" />
        </mxCell>
        <mxCell id="Ax9IiTMzF-sSAHh43Iia-25" value="" style="edgeStyle=orthogonalEdgeStyle;rounded=0;orthogonalLoop=1;jettySize=auto;html=1;" edge="1" parent="1" source="Ax9IiTMzF-sSAHh43Iia-26" target="Ax9IiTMzF-sSAHh43Iia-27">
          <mxGeometry relative="1" as="geometry" />
        </mxCell>
        <mxCell id="Ax9IiTMzF-sSAHh43Iia-26" value="Vellvm 抽象语法树" style="rounded=0;whiteSpace=wrap;html=1;labelBackgroundColor=none;fontFamily=Times New Roman;fontSize=16;shadow=1;fillColor=#f9f7ed;strokeColor=#36393d;" vertex="1" parent="1">
          <mxGeometry x="585.31" y="140" width="158.12" height="40" as="geometry" />
        </mxCell>
        <mxCell id="Ax9IiTMzF-sSAHh43Iia-27" value="LLVM IR 程序文本" style="rounded=0;whiteSpace=wrap;html=1;labelBackgroundColor=none;fontFamily=Times New Roman;fontSize=16;shadow=1;fillColor=#f9f7ed;strokeColor=#36393d;" vertex="1" parent="1">
          <mxGeometry x="584.22" y="210" width="160.32" height="40" as="geometry" />
        </mxCell>
        <mxCell id="Ax9IiTMzF-sSAHh43Iia-28" value="PCF 语法分析器" style="text;html=1;strokeColor=none;fillColor=none;align=center;verticalAlign=middle;whiteSpace=wrap;rounded=0;fontSize=16;fontFamily=Times New Roman;fontColor=#000000;" vertex="1" parent="1">
          <mxGeometry x="212.5" y="120" width="120" height="30" as="geometry" />
        </mxCell>
        <mxCell id="Ax9IiTMzF-sSAHh43Iia-29" value="&lt;font color=&quot;#8f2b2b&quot;&gt;CPS 转换&lt;/font&gt;" style="text;html=1;strokeColor=none;fillColor=none;align=center;verticalAlign=middle;whiteSpace=wrap;rounded=0;fontSize=16;fontFamily=Times New Roman;fontColor=#000000;" vertex="1" parent="1">
          <mxGeometry x="280" y="60" width="90" height="30" as="geometry" />
        </mxCell>
      </root>
    </mxGraphModel>
  </diagram>
</mxfile>
